{
    "asset": {
        "generator": "FBX2glTF",
        "version": "2.0"
    },
    "scene": 0,
    "buffers": [
        {
            "byteLength": 240996,
            "uri": "buffer.bin"
        }
    ],
    "bufferViews": [
        {
            "buffer": 0,
            "byteLength": 21378,
            "byteOffset": 0,
            "target": 34963
        },
        {
            "buffer": 0,
            "byteLength": 82356,
            "byteOffset": 21380,
            "target": 34962
        },
        {
            "buffer": 0,
            "byteLength": 82356,
            "byteOffset": 103736,
            "target": 34962
        },
        {
            "buffer": 0,
            "byteLength": 54904,
            "byteOffset": 186092,
            "target": 34962
        }
    ],
    "scenes": [
        {
            "name": "Root Scene",
            "nodes": [
                0
            ]
        }
    ],
    "accessors": [
        {
            "componentType": 5123,
            "type": "SCALAR",
            "count": 10689,
            "bufferView": 0,
            "byteOffset": 0
        },
        {
            "componentType": 5126,
            "type": "VEC3",
            "count": 6863,
            "bufferView": 1,
            "byteOffset": 0,
            "min": [
                -0.0156769491732121,
                -0.0156769491732121,
                -0.00999999977648258
            ],
            "max": [
                0.0156769491732121,
                0.0156769491732121,
                0.0355561785399914
            ]
        },
        {
            "componentType": 5126,
            "type": "VEC3",
            "count": 6863,
            "bufferView": 2,
            "byteOffset": 0
        },
        {
            "componentType": 5126,
            "type": "VEC2",
            "count": 6863,
            "bufferView": 3,
            "byteOffset": 0
        }
    ],
    "samplers": [
        {}
    ],
    "materials": [
        {
            "name": "White",
            "alphaMode": "OPAQUE",
            "extras": {
                "fromFBX": {
                    "shadingModel": "Phong",
                    "isTruePBR": false
                }
            },
            "pbrMetallicRoughness": {
                "baseColorFactor": [
                    1.0,
                    1.0,
                    1.0,
                    1.0
                ],
                "metallicFactor": 0.400000005960464,
                "roughnessFactor": 0.415087103843689
            }
        }
    ],
    "meshes": [
        {
            "name": "body",
            "primitives": [
                {
                    "material": 0,
                    "mode": 4,
                    "attributes": {
                        "NORMAL": 2,
                        "POSITION": 1,
                        "TEXCOORD_0": 3
                    },
                    "indices": 0
                }
            ]
        }
    ],
    "nodes": [
        {
            "name": "RootNode",
            "translation": [
                0.0,
                0.0,
                0.0
            ],
            "rotation": [
                0.0,
                0.0,
                0.0,
                1.0
            ],
            "scale": [
                1.0,
                1.0,
                1.0
            ],
            "children": [
                1
            ]
        },
        {
            "name": "body",
            "translation": [
                0.0,
                1.02654373645782,
                0.0
            ],
            "rotation": [
                -0.707106828689575,
                0.0,
                0.0,
                0.707106709480286
            ],
            "scale": [
                100.0,
                100.0,
                100.0
            ],
            "mesh": 0
        }
    ]
}